<svg width="69" height="71" viewBox="0 0 69 71" fill="none" xmlns="http://www.w3.org/2000/svg">
<g clip-path="url(#clip0_72_167)">
<path d="M14.5113 70.1605C13.3879 70.1605 12.4016 69.4835 11.9988 68.4358L8.86713 60.2938L0.72498 57.1624C-0.128419 56.8341 -0.751036 56.1043 -0.940801 55.2099C-1.13057 54.3155 -0.857813 53.3955 -0.21127 52.7492L15.7858 36.7522L32.4087 53.3751L16.4115 69.3725C15.9032 69.8807 15.2285 70.1605 14.5113 70.1605ZM4.15019 54.13L10.8929 56.7233C11.6019 56.9957 12.1657 57.5592 12.4384 58.2689L15.0312 65.011L26.667 53.3753L15.7859 42.4938L4.15019 54.13Z" fill="white"/>
<path d="M53.4869 70.1609C52.7817 70.1609 52.1 69.8834 51.5887 69.3725L48.0357 65.8196L50.9066 62.9486L52.969 65.011L55.5623 58.2683C55.8349 57.559 56.3985 56.9955 57.1082 56.7228L63.8501 54.1298L50.7788 41.0586L53.6498 38.1877L68.2115 52.7495C68.8578 53.3959 69.1306 54.3156 68.9409 55.2098C68.7512 56.1042 68.1285 56.8341 67.2751 57.1624L59.1331 60.2941L56.0015 68.4361C55.6735 69.2892 54.9434 69.9121 54.0492 70.1019C53.8622 70.1415 53.6737 70.1609 53.4869 70.1609Z" fill="white"/>
<path d="M58.3585 39.3041C59.2317 36.6141 63.6646 34.3703 63.6646 31.3893C63.6646 28.4081 59.2317 26.1642 58.3585 23.4742C57.4533 20.6865 59.6889 16.2715 58.0002 13.9508C56.2943 11.607 51.3935 12.3776 49.0496 10.6717C46.7289 8.98298 45.9567 4.0745 43.169 3.16943C40.4791 2.2962 36.9813 5.78458 34.0003 5.78458C31.0191 5.78458 27.5214 2.29593 24.8315 3.16943C22.0435 4.07464 21.2716 8.98298 18.951 10.6717C16.6072 12.3776 11.7062 11.6069 10.0004 13.9508C8.31151 16.2712 10.5473 20.6862 9.64205 23.4742C8.76883 26.1642 4.336 28.408 4.336 31.3893C4.336 34.3706 8.76883 36.6144 9.64205 39.3043C10.5473 42.0923 8.31164 46.5071 10.0004 48.8277C11.7062 51.1715 16.6071 50.401 18.951 52.1068C21.2716 53.7957 22.0438 58.7042 24.8315 59.6094C27.5214 60.4827 31.0193 56.9942 34.0003 56.9942C36.9814 56.9942 40.4791 60.4829 43.169 59.6094C45.957 58.7042 46.7289 53.7958 49.0496 52.1071C51.3934 50.4012 56.2943 51.1719 58.0002 48.8283C59.6889 46.5071 57.4533 42.0919 58.3585 39.3041ZM34.0001 47.6289C25.0311 47.6289 17.7604 40.3582 17.7604 31.3891C17.7604 22.4201 25.0311 15.1494 34.0001 15.1494C37.7341 15.1494 41.1736 16.4095 43.9169 18.5279C47.7628 21.4977 50.2399 26.1542 50.2399 31.3891C50.2399 40.358 42.9692 47.6289 34.0001 47.6289Z" fill="#D8EEF6" stroke="white" stroke-width="3"/>
</g>
<defs>
<clipPath id="clip0_72_167">
<rect width="70" height="70" fill="white" transform="translate(-1 0.580078)"/>
</clipPath>
</defs>
</svg>
