<svg width="70" height="71" viewBox="0 0 70 71" fill="none" xmlns="http://www.w3.org/2000/svg">
<g clip-path="url(#clip0_72_175)">
<path d="M35 0.119629C15.6558 0.119629 0 15.7734 0 35.1196C0 54.4641 15.6538 70.1196 35 70.1196C54.3442 70.1196 70 54.4659 70 35.1196C70 15.7752 54.3462 0.119629 35 0.119629ZM35 65.2359C18.3937 65.2359 4.88373 51.7258 4.88373 35.1196C4.88373 18.5135 18.3937 5.00336 35 5.00336C51.6063 5.00336 65.1163 18.5135 65.1163 35.1196C65.1163 51.7258 51.6063 65.2359 35 65.2359Z" fill="white"/>
<path d="M37.4418 28.0744V15.422C37.4418 14.0734 36.3485 12.9802 35 12.9802C33.6516 12.9802 32.5582 14.0736 32.5582 15.422V28.0193C29.6283 29.0072 27.5117 31.7795 27.5117 35.0383C27.5117 36.2335 27.798 37.3625 28.3029 38.363L22.5294 44.1365C21.5757 45.0901 21.5757 46.6361 22.5294 47.5898C23.4828 48.5434 25.029 48.5435 25.9826 47.5898L31.8123 41.7599C32.7576 42.1987 33.8096 42.4453 34.9185 42.4453C39.0027 42.4453 42.3255 39.1226 42.3255 35.0383C42.3255 31.8398 40.2875 29.1087 37.4418 28.0744ZM34.9187 37.5614C33.5273 37.5614 32.3954 36.4295 32.3954 35.0382C32.3954 33.6468 33.5273 32.5149 34.9187 32.5149C36.3101 32.5149 37.442 33.6468 37.442 35.0382C37.442 36.4295 36.3101 37.5614 34.9187 37.5614Z" fill="white"/>
</g>
<defs>
<clipPath id="clip0_72_175">
<rect width="70" height="70" fill="white" transform="translate(0 0.119629)"/>
</clipPath>
</defs>
</svg>
