<?xml version="1.0" encoding="utf-8"?>
<!-- Generator: Adobe Illustrator 27.2.0, SVG Export Plug-In . SVG Version: 6.00 Build 0)  -->
<svg version="1.1" id="Слой_1" xmlns="http://www.w3.org/2000/svg" xmlns:xlink="http://www.w3.org/1999/xlink" x="0px" y="0px"
	 viewBox="0 0 371 134.23" style="enable-background:new 0 0 371 134.23;" xml:space="preserve">
<style type="text/css">
	.st0{fill:#2E353A;}
	.st1{fill:#60B9D8;}
	.st2{fill:#FFFFFF;}
</style>
<g>
	<g>
		<path class="st0" d="M102.13,30.81c3.03,2.94,17.67,19.27,15.43,37.41c-4.43,35.97-34.68,44.14-46.03,34.71
			c-6.15-5.11-5.13-8.36-5.32-12.2c-0.23-4.71,1.87-9.33,10.95-13.94c6.25-3.18,18.01-3.07,21.74-19.13
			c3.86-16.59-16.67-40.86-40.79-40.84C54.16,16.83,84.98,14.16,102.13,30.81z"/>
		<g>
			<path class="st1" d="M82.16,51.22c0.03-0.46-0.35,9.97-1.76,19.03c-0.61,3.91-1.3,7.95-3.45,11.27c-1.89,2.91-4.78,5.06-7.9,6.58
				c-3.12,1.52-6.48,2.47-9.82,3.41c0,0,6.69,1.13,9.79,2.68c3.1,1.55,5.97,3.73,7.83,6.66c2.12,3.34,2.77,7.39,3.34,11.31
				c1.32,9.08,1.57,11.37,2.22,19.42c-0.02-0.46-0.33-10.76,1.07-19.82c0.61-3.91,1.3-7.95,3.45-11.27c1.89-2.91,4.78-5.06,7.9-6.58
				c3.12-1.52,9.81-1.9,9.81-1.9c-3.33-0.97-6.68-2.63-9.78-4.19c-3.1-1.55-5.97-3.73-7.83-6.66c-2.12-3.34-2.77-7.39-3.34-11.31
				C82.44,61.18,82.16,51.22,82.16,51.22z"/>
			<path class="st2" d="M82.16,51.21c0,0,0,0.01,0,0.04c0-0.01,0-0.02,0-0.02C82.16,51.21,82.16,51.21,82.16,51.21 M82.16,51.25
				c0.02,0.52,0.31,10.18,1.54,18.61c0.57,3.92,1.22,7.96,3.34,11.31c1.86,2.93,4.73,5.11,7.83,6.66c3.1,1.55,6.45,3.22,9.78,4.19
				c0,0-6.69,0.38-9.81,1.9c-3.12,1.52-6.01,3.67-7.9,6.58c-2.15,3.32-2.84,7.36-3.45,11.27c-1.41,9.06-1.1,19.36-1.07,19.82
				c-0.65-8.05-0.9-10.35-2.22-19.42c-0.57-3.92-1.22-7.96-3.34-11.31c-1.86-2.93-4.73-5.11-7.83-6.66
				c-3.1-1.55-9.79-2.68-9.79-2.68c3.34-0.94,6.7-1.89,9.82-3.41c3.12-1.52,6.01-3.67,7.9-6.58c2.15-3.32,2.84-7.36,3.45-11.27
				C81.74,61.7,82.15,51.92,82.16,51.25 M82.95,49.14l-0.93,0.07l-1.74,0.13l-0.1,1.76l0,0.09l0,0.05
				c-0.05,1.68-0.53,10.93-1.73,18.71c-0.63,4.05-1.3,7.63-3.15,10.49c-1.51,2.34-3.9,4.31-7.1,5.87c-2.96,1.45-6.28,2.38-9.48,3.28
				l-8.58,2.41l8.79,1.48c1.78,0.3,6.9,1.33,9.22,2.5c3.18,1.59,5.55,3.59,7.04,5.94c1.83,2.88,2.46,6.47,3.05,10.52
				c1.28,8.81,1.55,11.16,2.21,19.3l3.99-0.26c0-0.1-0.35-10.4,1.05-19.42c0.63-4.05,1.3-7.63,3.15-10.49
				c1.51-2.34,3.9-4.31,7.1-5.87c2.25-1.1,7.29-1.6,9.04-1.7l11.58-0.67l-11.14-3.25c-3.23-0.94-6.53-2.6-9.44-4.06
				c-3.18-1.59-5.55-3.59-7.04-5.94c-1.83-2.88-2.46-6.47-3.05-10.52c-1.18-8.11-1.49-17.44-1.52-18.33l0.02-0.79l-0.59-0.64
				L82.95,49.14L82.95,49.14z"/>
		</g>
		<path class="st0" d="M36.07,109.91c-3.03-2.94-17.67-19.27-15.43-37.41c4.43-35.97,34.68-44.14,46.03-34.71
			c6.15,5.11,5.13,8.36,5.32,12.2c0.23,4.71-1.87,9.33-10.95,13.94C54.79,67.1,43.03,67,39.3,83.06
			c-3.86,16.59,16.67,40.86,40.79,40.84C84.04,123.9,53.22,126.57,36.07,109.91z"/>
		<g>
			<path class="st1" d="M56.04,89.5c-0.03,0.46,0.35-9.97,1.76-19.03c0.61-3.91,1.3-7.95,3.45-11.27c1.89-2.91,4.78-5.06,7.9-6.58
				c3.12-1.52,6.48-2.47,9.82-3.41c0,0-6.69-1.13-9.79-2.68c-3.1-1.55-5.97-3.73-7.83-6.66c-2.12-3.34-2.77-7.39-3.34-11.31
				c-1.32-9.08-1.57-11.37-2.22-19.42c0.02,0.46,0.33,10.76-1.07,19.82c-0.61,3.91-1.3,7.95-3.45,11.27
				c-1.89,2.91-4.78,5.06-7.9,6.58c-3.12,1.52-9.81,1.9-9.81,1.9c3.33,0.97,6.68,2.63,9.78,4.19s5.97,3.73,7.83,6.66
				c2.12,3.34,2.77,7.39,3.34,11.31C55.76,79.54,56.04,89.5,56.04,89.5z"/>
			<path class="st2" d="M55.77,9.13c0.65,8.05,0.9,10.35,2.22,19.42c0.57,3.92,1.22,7.96,3.34,11.31c1.86,2.93,4.73,5.11,7.83,6.66
				c3.1,1.55,9.79,2.68,9.79,2.68c-3.34,0.94-6.7,1.89-9.82,3.41c-3.12,1.52-6.01,3.67-7.9,6.58c-2.15,3.32-2.84,7.36-3.45,11.27
				c-1.33,8.56-1.74,18.34-1.76,19.01c-0.02-0.52-0.31-10.18-1.54-18.61c-0.57-3.92-1.22-7.96-3.34-11.31
				c-1.86-2.93-4.73-5.11-7.83-6.66c-3.1-1.55-6.45-3.22-9.78-4.19c0,0,6.69-0.38,9.81-1.9c3.12-1.52,6.01-3.67,7.9-6.58
				c2.15-3.32,2.84-7.36,3.45-11.27C56.11,19.89,55.79,9.59,55.77,9.13 M56.03,89.48c0,0.01,0,0.02,0,0.02c0,0.01,0,0.01,0,0.01
				C56.03,89.52,56.03,89.5,56.03,89.48 M57.77,8.97l-3.99,0.26c0,0.1,0.35,10.4-1.05,19.42c-0.63,4.05-1.3,7.63-3.15,10.49
				c-1.51,2.34-3.9,4.31-7.1,5.87c-2.26,1.1-7.29,1.6-9.04,1.7l-11.6,0.66l11.15,3.26c3.23,0.94,6.53,2.6,9.44,4.06
				c3.18,1.59,5.55,3.59,7.04,5.94c1.83,2.88,2.46,6.47,3.05,10.52c1.18,8.11,1.49,17.44,1.52,18.33l-0.02,0.79l0.59,0.64l0.59,0.61
				h0.84h1.89l0.11-1.9l0-0.09l0-0.05c0.05-1.68,0.53-10.93,1.73-18.71c0.63-4.05,1.3-7.63,3.15-10.49c1.51-2.34,3.9-4.31,7.1-5.87
				c2.96-1.45,6.28-2.38,9.48-3.28l8.58-2.41l-8.79-1.48c-1.78-0.3-6.9-1.33-9.22-2.5c-3.18-1.59-5.55-3.59-7.04-5.94
				c-1.83-2.88-2.46-6.47-3.05-10.52C58.69,19.45,58.43,17.11,57.77,8.97L57.77,8.97z"/>
		</g>
		<path class="st0" d="M69.13,134.23c-35.14,0-63.73-28.59-63.73-63.73S33.99,6.77,69.13,6.77c35.14,0,63.73,28.59,63.73,63.73
			S104.28,134.23,69.13,134.23z M69.13,8.03C34.69,8.03,6.66,36.05,6.66,70.5s28.02,62.47,62.47,62.47
			c34.45,0,62.47-28.02,62.47-62.47S103.58,8.03,69.13,8.03z"/>
	</g>
	<g>
		<path class="st0" d="M155.09,62.17V24.26h12.13v1.47h-10.46v12.33h0.46c3.2,0,6.03,1.2,8.49,3.59c2.46,2.39,3.69,5.22,3.69,8.49
			c0,3.27-1.26,6.09-3.79,8.47s-5.48,3.56-8.85,3.56H155.09z M156.76,39.47v21.28h0.4c2.76,0,5.21-1.05,7.36-3.16
			c2.14-2.11,3.21-4.6,3.21-7.48c0-2.88-1.03-5.37-3.08-7.48c-2.06-2.11-4.55-3.16-7.48-3.16H156.76z"/>
		<path class="st0" d="M191.34,23.35l18.96,38.82h-1.77l-7.18-14.46h-20.27L174,62.17h-1.57L191.34,23.35z M191.19,26.84
			l-9.45,19.41h19.01L191.19,26.84z"/>
		<path class="st0" d="M231.68,23.4l18.86,38.77h-1.82l-17.19-35.13l-17.09,35.13h-1.62L231.68,23.4z"/>
		<path class="st0" d="M271.97,23.35l18.96,38.82h-1.77l-7.18-14.46h-20.27l-7.08,14.46h-1.57L271.97,23.35z M271.82,26.84
			l-9.45,19.41h19.01L271.82,26.84z"/>
		<path class="st0" d="M323.64,24.26h1.67v37.91h-1.67V47.71h-25.98v14.46h-1.67V24.26h1.67v21.99h25.98V24.26z"/>
		<path class="st0" d="M351.59,62.73h-0.56c-3.47,0-6.71-0.91-9.71-2.73c-3-1.82-5.37-4.24-7.1-7.25c-1.74-3.02-2.6-6.23-2.6-9.63
			c0-5.36,1.94-9.97,5.81-13.83c3.87-3.86,8.51-5.79,13.9-5.79c3.61,0,7.03,0.94,10.26,2.83v1.87c-3.17-2.16-6.59-3.24-10.26-3.24
			c-4.95,0-9.2,1.78-12.74,5.33c-3.54,3.56-5.31,7.82-5.31,12.79c0,4.97,1.77,9.24,5.31,12.82c3.54,3.57,7.78,5.36,12.74,5.36
			c3.67,0,7.09-1.08,10.26-3.24v1.87C358.53,61.78,355.2,62.73,351.59,62.73z"/>
		<path class="st0" d="M175.06,117.65h-0.56c-3.47,0-6.71-0.91-9.71-2.73c-3-1.82-5.37-4.24-7.1-7.25c-1.74-3.02-2.6-6.23-2.6-9.63
			c0-5.36,1.94-9.97,5.81-13.83c3.88-3.86,8.51-5.79,13.9-5.79c3.61,0,7.03,0.94,10.26,2.83v1.87c-3.17-2.16-6.59-3.24-10.26-3.24
			c-4.95,0-9.2,1.78-12.74,5.33c-3.54,3.56-5.31,7.82-5.31,12.79c0,4.97,1.77,9.24,5.31,12.82c3.54,3.57,7.79,5.36,12.74,5.36
			c3.67,0,7.09-1.08,10.26-3.24v1.87C182,116.71,178.67,117.65,175.06,117.65z"/>
		<path class="st0" d="M225.36,79.18v37.91h-1.67V81.56l-26.44,35.54h-1.57V79.18h1.67v35.44l26.34-35.44H225.36z"/>
		<path class="st0" d="M248.77,79.18h2.17v37.91h-1.62v-12.03l-11.48,12.03h-1.87l13.04-13.75h-0.66c-2.9,0-5.61-1.2-8.14-3.59
			c-2.53-2.39-3.79-5.21-3.79-8.47c0-3.25,1.24-6.08,3.72-8.49C242.63,80.39,245.5,79.18,248.77,79.18z M248.41,101.88h0.91V80.65
			h-0.66c-2.76,0-5.22,1.06-7.38,3.18c-2.16,2.12-3.24,4.62-3.24,7.48c0,2.86,1.04,5.34,3.13,7.43
			C243.27,100.84,245.68,101.88,248.41,101.88z"/>
		<path class="st0" d="M291.23,79.18h1.67v37.91h-1.67v-14.46h-25.98v14.46h-1.67V79.18h1.67v21.99h25.98V79.18z"/>
		<path class="st0" d="M335.21,79.18v37.91h-1.67V81.56l-26.44,35.54h-1.57V79.18h1.67v35.44l26.34-35.44H335.21z"/>
		<path class="st0" d="M358.62,79.18h2.17v37.91h-1.62v-12.03L347.7,117.1h-1.87l13.04-13.75h-0.66c-2.9,0-5.61-1.2-8.14-3.59
			c-2.53-2.39-3.79-5.21-3.79-8.47c0-3.25,1.24-6.08,3.72-8.49C352.48,80.39,355.35,79.18,358.62,79.18z M358.27,101.88h0.91V80.65
			h-0.66c-2.76,0-5.22,1.06-7.38,3.18c-2.16,2.12-3.24,4.62-3.24,7.48c0,2.86,1.04,5.34,3.13,7.43
			C353.13,100.84,355.54,101.88,358.27,101.88z"/>
	</g>
</g>
</svg>
