<svg width="29" height="46" viewBox="0 0 29 46" fill="none" xmlns="http://www.w3.org/2000/svg">
<path d="M23.7727 9.49173C23.7727 14.1436 19.833 17.9835 14.8864 17.9835C9.93978 17.9835 6 14.1436 6 9.49173C6 4.83988 9.93978 1 14.8864 1C19.833 1 23.7727 4.83988 23.7727 9.49173Z" stroke="#2E353A" stroke-width="2"/>
<mask id="path-2-inside-1_97_241" fill="white">
<path d="M29 31.3338C29 27.6417 27.4723 24.1008 24.753 21.49C22.0338 18.8793 18.3456 17.4126 14.5 17.4126C10.6544 17.4126 6.96623 18.8793 4.24695 21.49C1.52768 24.1008 5.80675e-07 27.6417 0 31.3338L14.5 31.3338H29Z"/>
</mask>
<path d="M29 31.3338C29 27.6417 27.4723 24.1008 24.753 21.49C22.0338 18.8793 18.3456 17.4126 14.5 17.4126C10.6544 17.4126 6.96623 18.8793 4.24695 21.49C1.52768 24.1008 5.80675e-07 27.6417 0 31.3338L14.5 31.3338H29Z" stroke="#2E353A" stroke-width="4" mask="url(#path-2-inside-1_97_241)"/>
</svg>
