<svg width="69" height="71" viewBox="0 0 69 71" fill="none" xmlns="http://www.w3.org/2000/svg">
<path d="M57.882 0.276855H10.118L-1 16.6506L34 70.8833L69 16.6506L57.882 0.276855ZM43.6596 18.0079L34 61.5702L24.196 18.0079H43.6596ZM25.5099 15.149L34.0578 4.14649L42.6056 15.149H25.5099ZM45.5656 14.0949L37.0611 3.13577H54.0701L45.5656 14.0949ZM22.5788 14.2538L13.9587 3.13577H31.1988L22.5788 14.2538ZM19.4889 15.149H3.47607L10.941 4.13205L19.4889 15.149ZM21.3515 18.0079L30.9534 60.8915L3.33168 18.0079H21.3515ZM46.5041 18.0079H64.6828L36.8156 61.2381L46.5041 18.0079ZM64.5239 15.149H48.5256L57.0734 4.14649L64.5239 15.149Z" fill="white"/>
</svg>
