<svg width="70" height="68" viewBox="0 0 70 68" fill="none" xmlns="http://www.w3.org/2000/svg">
<path d="M44.1028 67.1196C42.2003 67.1196 40.404 66.2437 38.667 65.3962C37.3367 64.7475 35.9617 64.0765 35.0003 64.0765C34.0389 64.0765 32.6636 64.7475 31.3336 65.3962C29.5966 66.2435 27.8003 67.1196 25.898 67.1196C25.3008 67.1196 24.7239 67.0307 24.183 66.8551C21.5943 66.0145 20.2826 63.5283 19.1251 61.3346C18.4586 60.0716 17.7697 58.7657 17.0622 58.2507C16.3359 57.7221 14.8652 57.4647 13.4428 57.2159C11.0169 56.7913 8.26698 56.3103 6.68488 54.1365C5.11666 51.9816 5.50256 49.232 5.84287 46.8059C6.04533 45.3632 6.25489 43.8715 5.96924 42.9928C5.7094 42.1923 4.69664 41.1515 3.71694 40.1449C1.97495 38.3544 0 36.3248 0 33.56C0 30.7951 1.97495 28.7656 3.71694 26.975C4.69649 25.9685 5.7094 24.9278 5.96939 24.127C6.25459 23.2484 6.04518 21.7569 5.84272 20.3142C5.50226 17.8882 5.11636 15.1386 6.68442 12.9836C8.26698 10.8095 11.0169 10.3284 13.4428 9.90389C14.8652 9.65508 16.3356 9.39796 17.0622 8.86908C17.7697 8.3544 18.4586 7.04843 19.1248 5.78535C20.2822 3.59163 21.594 1.10516 24.1827 0.264514C24.7236 0.0889264 25.3004 0 25.8977 0C27.8 0 29.5965 0.875978 31.3335 1.72342C32.6638 2.37217 34.0387 3.04312 35.0002 3.04312C35.9614 3.04312 37.3368 2.37217 38.6668 1.72342C40.4038 0.876128 42.2002 0 44.1025 0C44.6996 0 45.2767 0.0889264 45.8175 0.264514C48.4061 1.10516 49.7178 3.59163 50.8754 5.78535C51.5417 7.04828 52.2307 8.3541 52.9379 8.86908C53.6647 9.39796 55.1353 9.65508 56.5573 9.90389C58.9832 10.3284 61.7333 10.8095 63.3153 12.9832C64.8835 15.1382 64.4976 17.8878 64.1573 20.3139C63.9548 21.7566 63.7453 23.2483 64.0309 24.1268C64.2907 24.9276 65.3038 25.9683 66.2831 26.9752C68.0254 28.7656 70 30.7951 70 33.56C70 36.3248 68.025 38.3543 66.2831 40.1447C65.3035 41.1513 64.2906 42.192 64.0306 42.9928C63.7454 43.8713 63.9548 45.3632 64.1573 46.8056C64.4977 49.2315 64.8836 51.9812 63.3156 54.1362C61.733 56.3102 58.9832 56.7913 56.5573 57.2159C55.135 57.4646 53.6644 57.7218 52.9379 58.2507C52.2307 58.7654 51.5415 60.0713 50.8755 61.3344C49.7181 63.5282 48.4063 66.0146 45.8176 66.8553C45.277 67.0306 44.6999 67.1196 44.1028 67.1196ZM35 59.5933C36.9964 59.5933 38.8447 60.495 40.6323 61.3667C41.9121 61.9909 43.2353 62.6365 44.1026 62.6365C44.2307 62.6365 44.3389 62.6217 44.4331 62.591C45.2904 62.3126 46.151 60.6816 46.9102 59.2423C47.8152 57.5271 48.7511 55.7529 50.2999 54.6255C51.8675 53.4848 53.859 53.1364 55.7851 52.7995C57.3743 52.5215 59.1754 52.2063 59.691 51.4979C60.1923 50.809 59.9401 49.0132 59.7179 47.4287C59.4446 45.4827 59.1622 43.4703 59.767 41.6082C60.3496 39.8141 61.7327 38.3926 63.0701 37.0178C64.2169 35.8391 65.5168 34.5033 65.5168 33.5598C65.5168 32.6163 64.2169 31.2805 63.0701 30.1018C61.7324 28.7271 60.3493 27.3057 59.767 25.5114C59.1625 23.6493 59.4446 21.6369 59.7179 19.6909C59.94 18.1066 60.1923 16.3107 59.6907 15.6217C59.1754 14.9134 57.3741 14.5984 55.7851 14.3205C53.859 13.9835 51.8675 13.6352 50.2999 12.4944C48.7508 11.367 47.8149 9.59318 46.9099 7.87761C46.1507 6.43863 45.2901 4.80761 44.4327 4.5289C44.3388 4.49841 44.2307 4.48346 44.1025 4.48346C43.2351 4.48346 41.9121 5.12889 40.6324 5.75319C38.8448 6.62494 36.9965 7.52658 35.0002 7.52658C33.0038 7.52658 31.1555 6.62524 29.3677 5.75319C28.0882 5.12904 26.7649 4.48346 25.8977 4.48346C25.7696 4.48346 25.6614 4.49826 25.5672 4.5289C24.7099 4.80731 23.8493 6.43863 23.0901 7.87761C22.1851 9.59318 21.2492 11.367 19.7004 12.4944C18.1328 13.6352 16.1413 13.9835 14.2152 14.3205C12.626 14.5984 10.8249 14.9137 10.3093 15.6221C9.80802 16.311 10.0602 18.1067 10.2824 19.6912C10.5557 21.6372 10.8381 23.6496 10.2333 25.5118C9.6507 27.3058 8.26759 28.7273 6.93022 30.1018C5.78338 31.2805 4.48346 32.6164 4.48346 33.5601C4.48346 34.5039 5.78338 35.8397 6.93022 37.0184C8.26789 38.3931 9.651 39.8146 10.2333 41.6085C10.8378 43.4708 10.5557 45.483 10.2824 47.4293C10.0603 49.0137 9.80802 50.8096 10.3096 51.4985C10.8249 52.2069 12.6262 52.5218 14.2152 52.7998C16.1413 53.1368 18.1328 53.4851 19.7001 54.6259C21.2493 55.7532 22.1852 57.5271 23.0902 59.2426C23.8495 60.6816 24.7101 62.3128 25.5673 62.5913C25.6615 62.6218 25.7695 62.6368 25.8978 62.6368C26.7649 62.6368 28.0882 61.9913 29.3677 61.367C31.1553 60.495 33.0035 59.5933 35 59.5933Z" fill="white"/>
<path d="M35 53.7351C23.8755 53.7351 14.8248 44.6845 14.8248 33.5598C14.8248 22.4351 23.8753 13.3845 35 13.3845C39.504 13.3845 43.7646 14.8362 47.3212 17.5829C52.3126 21.4371 55.1751 27.2605 55.1751 33.5596C55.1751 44.6845 46.1246 53.7351 35 53.7351ZM35 17.8681C26.3476 17.8681 19.3082 24.9075 19.3082 33.5599C19.3082 42.2124 26.3476 49.2517 35 49.2517C43.6525 49.2517 50.6918 42.2124 50.6918 33.5599C50.6918 28.6602 48.4645 24.1306 44.581 21.1315C41.8166 18.9967 38.5033 17.8681 35 17.8681Z" fill="white"/>
</svg>
