<svg width="79" height="81" viewBox="0 0 79 81" fill="none" xmlns="http://www.w3.org/2000/svg">
<g clip-path="url(#clip0_72_151)">
<path d="M8.29482 9.87297V79.2062C8.29482 79.9427 8.89181 80.5397 9.62829 80.5397H60.295C61.031 80.5397 61.628 79.9427 61.628 79.2062V23.2067C61.628 23.177 61.6137 23.1517 61.6109 23.1226C61.6043 23.0057 61.5813 22.8903 61.5428 22.7799C61.528 22.7371 61.5176 22.6959 61.4989 22.6542C61.4341 22.5092 61.344 22.3768 61.232 22.2637L47.8988 8.93053C47.7857 8.81794 47.6528 8.72787 47.5067 8.66361C47.4666 8.64659 47.426 8.63231 47.3842 8.61967C47.2727 8.58123 47.1569 8.55816 47.0388 8.55047C47.0163 8.55432 46.9899 8.54004 46.9619 8.54004H9.62829C8.89181 8.54004 8.29482 9.13648 8.29482 9.87297ZM57.0761 21.8732H48.2948V13.0919L57.0761 21.8732ZM10.9612 11.2064H45.6284V23.2067C45.6284 23.9426 46.2254 24.5396 46.9613 24.5396H58.9616V77.8733H10.9612V11.2064Z" fill="white"/>
<path d="M64.2949 69.8731V72.5395H68.2948C69.0313 72.5395 69.6283 71.943 69.6283 71.2065V1.87327C69.6283 1.13679 69.0313 0.539795 68.2948 0.539795H17.6281C16.8916 0.539795 16.2946 1.13679 16.2946 1.87327V5.87316H18.9616V3.20621H66.9613V69.8731H64.2949Z" fill="white"/>
<path d="M18.9616 27.2065H50.9612V29.873H18.9616V27.2065Z" fill="white"/>
<path d="M18.9616 19.2063H29.6283V21.8733H18.9616V19.2063Z" fill="white"/>
<path d="M18.9616 35.2065H40.295V37.8735H18.9616V35.2065Z" fill="white"/>
<path d="M42.9614 35.2065H50.9612V37.8735H42.9614V35.2065Z" fill="white"/>
<path d="M18.9616 43.2063H50.9612V45.8733H18.9616V43.2063Z" fill="white"/>
<path d="M18.9616 59.2063H50.9612V61.8733H18.9616V59.2063Z" fill="white"/>
<path d="M30.9612 51.2065H50.9612V53.873H30.9612V51.2065Z" fill="white"/>
<path d="M18.9616 51.2065H28.2948V53.873H18.9616V51.2065Z" fill="white"/>
<path d="M18.9616 67.2065H24.2949V69.873H18.9616V67.2065Z" fill="white"/>
<path d="M26.9613 67.2065H50.9612V69.873H26.9613V67.2065Z" fill="white"/>
</g>
<defs>
<clipPath id="clip0_72_151">
<rect width="80" height="80.0402" fill="white" transform="translate(-1 0.539795)"/>
</clipPath>
</defs>
</svg>
